<svg xmlns="http://www.w3.org/2000/svg" id="a" viewBox="0 0 583.05 116.58"><defs><style>.b{fill:#0e3f57;}.b,.c,.d{stroke-width:0px;}.c{fill:#231f20;}.d{fill:#fff;}</style></defs><polygon class="c" points="249.32 66.17 239.59 44.42 234.68 44.42 234.68 72.16 239.23 72.16 239.23 53.16 247.73 72.16 250.88 72.16 259.34 53.16 259.34 72.16 263.89 72.16 263.89 44.42 259.02 44.42 249.32 66.17"></polygon><path class="c" d="m293.9,44.4l-9.94,27.78h4.75l1.99-5.67h11.61l2,5.67h4.79l-9.94-27.78h-5.27Zm-1.92,18.4l4.55-12.89,4.51,12.89h-9.06Z"></path><path class="c" d="m346.95,57.65c1.05-1.48,1.58-3.12,1.58-4.93,0-1.54-.37-2.94-1.1-4.19-.73-1.25-1.84-2.25-3.31-2.99-1.48-.74-3.28-1.12-5.41-1.12h-9.58v27.73h4.55v-11.09h3.47l6.39,11.09h5.43l-6.86-11.49c2.18-.53,3.8-1.54,4.85-3.01Zm-13.27-.22v-9.3h5.03c1.73,0,3.02.41,3.87,1.22.85.81,1.28,1.94,1.28,3.37s-.43,2.58-1.3,3.43c-.86.85-2.15,1.28-3.85,1.28h-5.03Z"></path><polygon class="c" points="391.1 44.42 385.39 44.42 374.62 57.08 374.62 44.42 370.07 44.42 370.07 72.16 374.62 72.16 374.62 59.75 385.36 72.16 391.3 72.16 379.05 58.31 391.1 44.42"></polygon><polygon class="c" points="411.06 72.18 426.38 72.18 426.38 68.47 415.61 68.47 415.61 59.97 425.18 59.97 425.18 56.26 415.61 56.26 415.61 48.12 426.38 48.12 426.38 44.4 411.06 44.4 411.06 72.18"></polygon><polygon class="c" points="446.25 48.14 453.68 48.14 453.68 72.16 458.22 72.16 458.22 48.14 465.61 48.14 465.61 44.42 446.25 44.42 446.25 48.14"></polygon><rect class="c" x="485.92" y="44.43" width="4.55" height="27.73"></rect><polygon class="c" points="530.41 65.08 516.73 44.41 512.18 44.41 512.18 72.18 516.73 72.18 516.73 51.47 530.41 72.18 534.96 72.18 534.96 44.41 530.41 44.41 530.41 65.08"></polygon><path class="c" d="m567.76,57.02v3.63h10.41c-.35,2.37-1.29,4.24-2.83,5.63-1.54,1.38-3.55,2.08-6.02,2.08-1.84,0-3.47-.41-4.91-1.24-1.44-.82-2.56-2-3.37-3.53-.81-1.53-1.22-3.29-1.22-5.29s.4-3.75,1.22-5.27c.81-1.52,1.93-2.69,3.37-3.51,1.44-.83,3.07-1.24,4.91-1.24,1.67,0,3.15.35,4.43,1.06,1.28.71,2.28,1.75,2.99,3.13h5.47c-1.04-2.66-2.71-4.72-5.01-6.17-2.3-1.45-4.93-2.17-7.88-2.17-2.58,0-4.96.61-7.12,1.82-2.17,1.21-3.89,2.89-5.15,5.05-1.26,2.15-1.9,4.59-1.9,7.3s.63,5.15,1.9,7.3c1.26,2.15,2.97,3.84,5.13,5.05,2.15,1.21,4.54,1.82,7.14,1.82,2.42,0,4.62-.54,6.6-1.62,1.98-1.08,3.59-2.52,4.83-4.33,1.24-1.81,2-3.79,2.29-5.95v-3.55h-15.28Z"></path><rect class="b" width="200.33" height="116.58"></rect><path class="d" d="m60.38,82.86c-2.99,3.08-7.02,4.63-12.06,4.63h-3.2V29.09h9.43v-1.95H22.51v1.95h5.25v58.39h-5.25v1.96h47.17l1.69-20.83h-1.87c-3.09,6.41-6.13,11.16-9.12,14.24Z"></path><polygon class="d" points="75.91 28.83 80.81 28.83 80.81 87.75 75.91 87.75 75.91 89.44 103.06 89.44 103.06 87.75 98.16 87.75 98.16 28.83 103.06 28.83 103.06 27.14 75.91 27.14 75.91 28.83"></polygon><polygon class="d" points="177.82 28.83 177.82 27.14 154.06 27.14 143.38 72.98 131.54 27.14 107.51 27.14 107.51 28.83 112.4 28.83 112.4 87.75 107.51 87.75 107.51 89.44 119.61 89.44 119.61 87.75 114.72 87.75 114.72 31.86 115.07 31.86 130.74 89.44 141.86 89.44 155.21 32.12 155.57 32.12 155.57 87.75 150.68 87.75 150.68 89.44 177.82 89.44 177.82 87.75 172.93 87.75 172.93 28.83 177.82 28.83"></polygon></svg>