<?xml version="1.0" encoding="UTF-8"?>
<svg xmlns="http://www.w3.org/2000/svg" width="910" height="236" viewBox="0 0 910 236" fill="none">
  <g clip-path="url(#clip0)">
    <path d="M238.1 178.199V0.255005H265.752V70.4082C274.458 57.4394 287.515 50.9533 304.925 50.95C319.775 50.95 331.253 55.3453 339.361 64.1358C347.469 72.9263 351.523 85.173 351.523 100.876V178.199H323.872V104.718C323.872 84.4083 314.826 74.2524 296.733 74.2504C287.683 74.2504 280.258 76.9816 274.457 82.4439C268.656 87.9062 265.754 95.587 265.752 105.486V178.201L238.1 178.199Z" fill="#323232"></path>
    <path d="M482.173 162.837C469.884 175.126 454.437 181.271 435.832 181.271C417.227 181.271 401.736 175.126 389.361 162.837C376.984 150.548 370.795 134.93 370.795 115.982C370.795 97.0341 376.982 81.4588 389.357 69.2561C401.732 57.0554 417.222 50.9534 435.828 50.95C454.434 50.9467 469.881 57.0487 482.169 69.2561C494.46 81.4622 500.605 97.0374 500.605 115.982C500.604 134.926 494.46 150.545 482.173 162.837ZM409.588 147.221C416.157 154.903 424.905 158.743 435.832 158.742C446.759 158.742 455.507 154.901 462.075 147.221C468.643 139.54 471.929 129.128 471.932 115.985C471.932 103.015 468.604 92.6892 461.947 85.0061C455.291 77.3229 446.586 73.482 435.832 73.4834C424.907 73.4834 416.159 77.2811 409.588 84.8769C403.018 92.4727 399.732 102.842 399.731 115.985C399.731 129.13 403.017 139.542 409.588 147.221Z" fill="#323232"></path>
    <path d="M564.617 181.271C539.182 181.271 526.466 167.616 526.467 140.305V77.3166H507.266V54.0152H527.236L533.637 17.403H554.375V54.0152H603.789V77.3166H554.375V139.533C554.375 150.97 558.557 156.688 566.92 156.688C574.768 156.688 581.852 149.519 588.17 135.18L609.678 146.191C599.092 169.58 584.072 181.273 564.617 181.271Z" fill="#323232"></path>
    <path d="M618.56 235.038C606.271 235.038 596.115 231.624 588.092 224.796L598.335 203.034C603.286 208.834 608.663 211.735 614.464 211.735C622.145 211.735 625.985 206.785 625.985 196.886V54.0222H653.637V197.401C653.637 210.716 650.351 220.316 643.779 226.202C637.208 232.089 628.801 235.034 618.56 235.038ZM639.811 33.0259C635.265 33.1802 630.845 31.5226 627.521 28.4177C625.923 26.9111 624.663 25.0822 623.824 23.0519C622.986 21.0217 622.588 18.8364 622.658 16.641C622.597 14.4275 622.997 12.2255 623.835 10.1755C624.672 8.12557 625.928 6.27272 627.521 4.73524C630.864 1.68802 635.224 -0.00109863 639.747 -0.00109863C644.27 -0.00109863 648.63 1.68802 651.973 4.73524C653.6 6.25352 654.886 8.09984 655.747 10.1522C656.608 12.2046 657.023 14.4162 656.966 16.641C657.006 18.8255 656.582 20.9936 655.721 23.0018C654.86 25.01 653.582 26.8124 651.973 28.2897C650.358 29.8409 648.452 31.0578 646.365 31.8708C644.279 32.6837 642.052 33.0766 639.813 33.027L639.811 33.0259Z" fill="#323232"></path>
    <path d="M722.304 181.271C708.134 181.271 696.655 177.729 687.868 170.645C679.081 163.561 674.685 154.046 674.682 142.098C674.682 131.176 679.249 121.916 688.383 114.318C697.517 106.72 708.995 102.922 722.819 102.924C736.986 102.924 748.934 107.448 758.664 116.495V101.388C758.664 92.5155 756.402 85.6454 751.879 80.7778C747.355 75.9102 740.912 73.4767 732.549 73.4774C715.652 73.4774 705.154 82.0972 701.056 99.3369L675.709 93.9596C679.121 80.6468 685.863 70.1498 695.936 62.4687C706.01 54.7876 718.555 50.947 733.573 50.947C749.959 50.947 762.889 55.2569 772.362 63.8768C781.834 72.4966 786.571 85.0847 786.572 101.641V178.196H759.687V162.58C750.637 175.042 738.176 181.273 722.304 181.271ZM727.425 160.788C739.714 160.788 750.126 154.643 758.661 142.354V138.513C750.127 128.271 739.715 123.151 727.425 123.152C720.257 123.152 714.453 124.902 710.014 128.401C707.914 129.948 706.214 131.976 705.056 134.314C703.898 136.652 703.315 139.233 703.357 141.841C703.289 144.478 703.845 147.093 704.98 149.474C706.114 151.855 707.795 153.934 709.886 155.542C714.24 159.042 720.087 160.79 727.425 160.788Z" fill="#323232"></path>
    <path d="M813.477 178.199V54.0222H840.36V75.5235C847.186 59.8225 858.964 51.9711 875.694 51.9691C885.589 51.9691 893.782 55.2123 900.272 61.6987C906.763 68.1851 910.006 76.8899 910.002 87.8132C909.933 94.3511 908.809 100.835 906.673 107.014L881.325 104.455C881.846 101.062 882.188 97.6437 882.349 94.2146C882.349 81.4138 877.058 75.0135 866.476 75.0135C859.307 75.0135 853.29 78.8114 848.425 86.4071C843.561 94.0029 841.128 104.031 841.125 116.492V178.196L813.477 178.199Z" fill="#323232"></path>
    <path d="M65.4218 73.0223C86.0229 61.5747 114.248 45.8967 114.248 0.255005H80.0787C80.0787 25.7905 67.647 32.6969 48.8299 43.1515C28.2287 54.5982 0.00390625 70.2762 0.00390625 115.918H34.176C34.176 90.3823 46.6047 83.477 65.4218 73.0223Z" fill="#FF3C00"></path>
    <path d="M124.561 62.5356C124.561 88.0711 112.13 94.9766 93.3122 105.431C72.7109 116.879 44.4863 132.557 44.4863 178.199H78.6583C78.6583 152.663 91.09 145.757 109.908 135.302C130.509 123.855 158.733 108.177 158.733 62.5356H124.561Z" fill="#FF3C00"></path>
  </g>
  <defs>
    <clipPath id="clip0">
      <rect width="910" height="236" fill="white"></rect>
    </clipPath>
  </defs>
</svg>
